<svg xmlns="http://www.w3.org/2000/svg" width="277" height="116" viewBox="0 0 277 116"><g transform="translate(18.000,18.000) scale(1.6000)"><path d="M24.9601 17.0879C24.8321 15.0399 24.3414 13.0986 23.4881 11.2639C22.6348 9.42928 21.3974 7.93594 19.7761 6.78394C18.1548 5.63194 16.0854 5.05594 13.5681 5.05594C10.9228 5.05594 8.89609 5.80261 7.48809 7.29594C6.08009 8.78928 5.37609 10.5386 5.37609 12.5439C5.37609 14.3359 5.88809 15.8506 6.91209 17.0879C7.93609 18.2826 9.25875 19.3493 10.8801 20.2879C12.5441 21.1839 14.2934 22.0586 16.1281 22.9119C17.7494 23.6373 19.3708 24.4266 20.9921 25.2799C22.6134 26.0906 24.0854 27.0293 25.4081 28.0959C26.7308 29.1626 27.7761 30.4426 28.5441 31.9359C29.3548 33.3866 29.7601 35.1359 29.7601 37.1839C29.7601 39.5306 29.1628 41.6213 27.9681 43.4559C26.8161 45.2906 25.1308 46.7413 22.9121 47.8079C20.6934 48.8319 17.9841 49.3439 14.7841 49.3439C12.8641 49.3439 10.8801 49.0666 8.83209 48.5119C6.78409 47.9573 4.97075 47.1466 3.39209 46.0799L3.71209 48.8319H0.384086L8.60691e-05 35.1999H2.49609C2.70942 38.9546 4.01075 41.8133 6.40009 43.7759C8.78942 45.6959 11.6694 46.6559 15.0401 46.6559C16.7041 46.6559 18.2401 46.3573 19.6481 45.7599C21.0561 45.1199 22.1654 44.2026 22.9761 43.0079C23.8294 41.8133 24.2561 40.3626 24.2561 38.6559C24.2561 36.7359 23.7441 35.1359 22.7201 33.8559C21.6961 32.5759 20.3734 31.4666 18.7521 30.5279C17.1308 29.5893 15.4028 28.6933 13.5681 27.8399C11.9468 27.1146 10.3468 26.3466 8.76809 25.5359C7.18942 24.7253 5.73875 23.8079 4.41609 22.7839C3.13609 21.7173 2.09075 20.4586 1.28009 19.0079C0.512086 17.5573 0.128086 15.8079 0.128086 13.7599C0.128086 12.6506 0.320086 11.4559 0.704086 10.1759C1.08809 8.89594 1.74942 7.67994 2.68809 6.52794C3.66942 5.33328 4.99209 4.37328 6.65609 3.64795C8.36275 2.87995 10.5174 2.49594 13.1201 2.49594C14.7414 2.49594 16.5548 2.73061 18.5601 3.19994C20.6081 3.62661 22.5068 4.47994 24.2561 5.75994L24.0001 3.00795H27.2641V17.0879H24.9601ZM50.9046 49.3439C47.9606 49.3439 45.2939 48.6613 42.9046 47.2959C40.5579 45.8879 38.7019 43.9253 37.3366 41.4079C35.9713 38.8479 35.2886 35.8399 35.2886 32.3839C35.2886 29.3973 35.9499 26.6026 37.2726 23.9999C38.6379 21.3973 40.5366 19.3066 42.9686 17.7279C45.4006 16.1066 48.2166 15.2959 51.4166 15.2959C53.2086 15.2959 54.8726 15.5946 56.4086 16.1919C57.9873 16.7466 59.3739 17.6213 60.5686 18.8159C61.7633 19.9679 62.7019 21.4399 63.3846 23.2319C64.0673 24.9813 64.4086 27.0506 64.4086 29.4399L41.8806 29.8239C41.8806 33.0666 42.2219 35.9253 42.9046 38.3999C43.6299 40.8319 44.7819 42.7306 46.3606 44.0959C47.9393 45.4186 49.9659 46.0799 52.4406 46.0799C53.7633 46.0799 55.1073 45.8453 56.4726 45.3759C57.8806 44.9066 59.1819 44.2666 60.3766 43.4559C61.5713 42.6453 62.5313 41.7493 63.2566 40.7679L64.7926 42.0479C63.6406 43.8399 62.2539 45.2693 60.6326 46.3359C59.0113 47.4026 57.3473 48.1706 55.6406 48.6399C53.9339 49.1093 52.3553 49.3439 50.9046 49.3439ZM42.0726 27.1359H58.3926C58.3926 25.5999 58.1579 24.1279 57.6886 22.7199C57.2619 21.2693 56.5366 20.0959 55.5126 19.1999C54.4886 18.2613 53.1446 17.7919 51.4806 17.7919C49.0059 17.7919 46.9366 18.5386 45.2726 20.0319C43.6513 21.4826 42.5846 23.8506 42.0726 27.1359ZM69.4641 46.3999C70.7868 46.3999 71.7041 46.0799 72.2161 45.4399C72.7281 44.7573 73.0268 43.8399 73.1121 42.6879C73.1974 41.4933 73.2401 40.1279 73.2401 38.5919V8.31995C73.2401 7.63728 73.2401 6.99728 73.2401 6.39994C73.2828 5.75994 73.3468 5.01328 73.4321 4.15994C72.6641 4.20261 71.8961 4.24528 71.1281 4.28794C70.4028 4.33061 69.6561 4.37328 68.8881 4.41594V1.72794C70.7654 1.72794 72.2161 1.64261 73.2401 1.47194C74.3068 1.30128 75.0961 1.08794 75.6081 0.831944C76.1628 0.575944 76.5894 0.298611 76.8881 -5.72205e-05H78.7441L78.8081 41.5359C78.8081 42.3893 78.7868 43.1573 78.7441 43.8399C78.7014 44.4799 78.6161 45.1626 78.4881 45.8879C79.1708 45.8453 79.8321 45.8239 80.4721 45.8239C81.1548 45.7813 81.8374 45.7386 82.5201 45.6959V48.3199H69.4641V46.3999ZM87.5416 46.3999C88.8643 46.3999 89.7816 46.0799 90.2936 45.4399C90.8056 44.7573 91.1043 43.8399 91.1896 42.6879C91.2749 41.4933 91.3176 40.1279 91.3176 38.5919V23.9999C91.3176 23.3173 91.3389 22.6773 91.3816 22.0799C91.4243 21.4399 91.4883 20.6933 91.5736 19.8399C90.8056 19.8826 90.0376 19.9253 89.2696 19.9679C88.5443 20.0106 87.7976 20.0533 87.0296 20.0959V17.4079C88.9069 17.4079 90.3576 17.3226 91.3816 17.1519C92.4056 16.9813 93.1736 16.7679 93.6856 16.5119C94.2403 16.2559 94.6669 15.9786 94.9656 15.6799H96.8216V41.5359C96.8216 42.3893 96.8003 43.1573 96.7576 43.8399C96.7576 44.4799 96.6936 45.1626 96.5656 45.8879C97.2483 45.8453 97.9096 45.8239 98.5496 45.8239C99.2323 45.7813 99.9149 45.7386 100.598 45.6959V48.3199H87.5416V46.3999ZM93.6856 9.34394C92.7896 9.34394 92.0003 8.98128 91.3176 8.25594C90.6349 7.53061 90.2936 6.63461 90.2936 5.56794C90.2936 4.50128 90.6349 3.60528 91.3176 2.87994C92.0429 2.11194 92.8536 1.72794 93.7496 1.72794C94.7309 1.72794 95.5416 2.11194 96.1816 2.87994C96.8643 3.60528 97.2056 4.50128 97.2056 5.56794C97.2056 6.63461 96.8429 7.53061 96.1176 8.25594C95.4349 8.98128 94.6243 9.34394 93.6856 9.34394ZM124.998 48.3199C124.87 47.5946 124.784 46.9546 124.742 46.3999C124.699 45.8453 124.635 45.2693 124.55 44.6719C123.099 46.1226 121.52 47.2746 119.814 48.1279C118.15 48.9386 116.379 49.3439 114.502 49.3439C111.259 49.3439 108.848 48.6186 107.27 47.1679C105.691 45.6746 104.902 43.8613 104.902 41.7279C104.902 39.7653 105.499 38.0799 106.694 36.6719C107.931 35.2213 109.51 34.0479 111.43 33.1519C113.392 32.2133 115.504 31.5306 117.766 31.1039C120.07 30.6346 122.288 30.4213 124.422 30.4639V26.4959C124.422 25.0026 124.294 23.5946 124.038 22.2719C123.782 20.9493 123.227 19.8613 122.374 19.0079C121.52 18.1546 120.155 17.7066 118.278 17.6639C117.04 17.6213 115.76 17.8559 114.438 18.3679C113.158 18.8799 112.219 19.7546 111.622 20.9919C111.963 21.3333 112.176 21.7386 112.262 22.2079C112.39 22.6346 112.454 23.0399 112.454 23.4239C112.454 23.9359 112.24 24.5333 111.814 25.2159C111.387 25.8559 110.64 26.1546 109.574 26.1119C108.678 26.1119 107.995 25.8133 107.526 25.2159C107.056 24.5759 106.822 23.8293 106.822 22.9759C106.822 21.5253 107.355 20.2239 108.422 19.0719C109.531 17.9199 111.046 17.0026 112.966 16.3199C114.886 15.6373 117.062 15.2959 119.494 15.2959C123.078 15.2959 125.723 16.2559 127.43 18.1759C129.136 20.0533 129.968 23.0399 129.926 27.1359C129.926 28.7146 129.926 30.3146 129.926 31.9359C129.926 33.5146 129.904 35.1146 129.862 36.7359C129.862 38.3146 129.862 39.9146 129.862 41.5359C129.862 42.2186 129.84 42.9013 129.798 43.5839C129.755 44.2666 129.691 45.0346 129.606 45.8879C130.374 45.8453 131.12 45.8026 131.846 45.7599C132.614 45.7173 133.382 45.6746 134.15 45.6319V48.3199H124.998ZM124.422 32.6399C122.971 32.6826 121.435 32.8746 119.814 33.2159C118.235 33.5146 116.763 33.9839 115.398 34.6239C114.075 35.2639 112.987 36.1173 112.134 37.1839C111.323 38.2079 110.939 39.4666 110.982 40.9599C111.067 42.5386 111.579 43.7333 112.518 44.5439C113.499 45.3119 114.651 45.6959 115.974 45.6959C117.723 45.6959 119.238 45.3759 120.518 44.7359C121.84 44.0533 123.142 43.1146 124.422 41.9199C124.379 41.4506 124.358 40.9386 124.358 40.3839C124.358 39.8293 124.358 39.2533 124.358 38.6559C124.358 38.4426 124.358 37.7599 124.358 36.6079C124.4 35.4559 124.422 34.1333 124.422 32.6399Z" fill="#1A5C5C"/></g><circle cx="252.00" cy="93.20" r="6.80" fill="#1A5C5C"/></svg>