<svg xmlns="http://www.w3.org/2000/svg" width="512" height="512" viewBox="0 0 512 512"><rect x="0" y="0" width="512" height="512" rx="133.12" ry="133.12" fill="#1A5C5C"/><g transform="translate(158.426,86.033) scale(6.5574)"><path d="M24.9601 17.0879C24.8321 15.0399 24.3414 13.0986 23.4881 11.2639C22.6348 9.42928 21.3974 7.93594 19.7761 6.78394C18.1548 5.63194 16.0854 5.05594 13.5681 5.05594C10.9228 5.05594 8.89609 5.80261 7.48809 7.29594C6.08009 8.78928 5.37609 10.5386 5.37609 12.5439C5.37609 14.3359 5.88809 15.8506 6.91209 17.0879C7.93609 18.2826 9.25875 19.3493 10.8801 20.2879C12.5441 21.1839 14.2934 22.0586 16.1281 22.9119C17.7494 23.6373 19.3708 24.4266 20.9921 25.2799C22.6134 26.0906 24.0854 27.0293 25.4081 28.0959C26.7308 29.1626 27.7761 30.4426 28.5441 31.9359C29.3548 33.3866 29.7601 35.1359 29.7601 37.1839C29.7601 39.5306 29.1628 41.6213 27.9681 43.4559C26.8161 45.2906 25.1308 46.7413 22.9121 47.8079C20.6934 48.8319 17.9841 49.3439 14.7841 49.3439C12.8641 49.3439 10.8801 49.0666 8.83209 48.5119C6.78409 47.9573 4.97075 47.1466 3.39209 46.0799L3.71209 48.8319H0.384086L8.60691e-05 35.1999H2.49609C2.70942 38.9546 4.01075 41.8133 6.40009 43.7759C8.78942 45.6959 11.6694 46.6559 15.0401 46.6559C16.7041 46.6559 18.2401 46.3573 19.6481 45.7599C21.0561 45.1199 22.1654 44.2026 22.9761 43.0079C23.8294 41.8133 24.2561 40.3626 24.2561 38.6559C24.2561 36.7359 23.7441 35.1359 22.7201 33.8559C21.6961 32.5759 20.3734 31.4666 18.7521 30.5279C17.1308 29.5893 15.4028 28.6933 13.5681 27.8399C11.9468 27.1146 10.3468 26.3466 8.76809 25.5359C7.18942 24.7253 5.73875 23.8079 4.41609 22.7839C3.13609 21.7173 2.09075 20.4586 1.28009 19.0079C0.512086 17.5573 0.128086 15.8079 0.128086 13.7599C0.128086 12.6506 0.320086 11.4559 0.704086 10.1759C1.08809 8.89594 1.74942 7.67994 2.68809 6.52794C3.66942 5.33328 4.99209 4.37328 6.65609 3.64795C8.36275 2.87995 10.5174 2.49594 13.1201 2.49594C14.7414 2.49594 16.5548 2.73061 18.5601 3.19994C20.6081 3.62661 22.5068 4.47994 24.2561 5.75994L24.0001 3.00795H27.2641V17.0879H24.9601Z" fill="#FDF6EE"/></g></svg>